HIERARCHY
ROOT Hips
{
	OFFSET 0.000000 0.000000 0.000000
	CHANNELS 6 Xposition Yposition Zposition Zrotation Yrotation Xrotation 
	JOINT LHipJoint
	{
		OFFSET 0.000000 0.000000 0.000000
		CHANNELS 3 Zrotation Yrotation Xrotation
		JOINT LeftUpLeg
		{
			OFFSET 1.363060 -1.794630 0.839290
			CHANNELS 3 Zrotation Yrotation Xrotation
			JOINT LeftLeg
			{
				OFFSET 2.448110 -6.726130 0.000000
				CHANNELS 3 Zrotation Yrotation Xrotation
				JOINT LeftFoot
				{
					OFFSET 2.562200 -7.039590 0.000000
					CHANNELS 3 Zrotation Yrotation Xrotation
					JOINT LeftToeBase
					{
						OFFSET 0.157640 -0.433110 2.322550
						CHANNELS 3 Zrotation Yrotation Xrotation
						End Site
						{
							OFFSET 0.000000 0.000000 0.000000
						}
					}
				}
			}
		}
	}
	JOINT RHipJoint
	{
		OFFSET 0.000000 0.000000 0.000000
		CHANNELS 3 Zrotation Yrotation Xrotation
		JOINT RightUpLeg
		{
			OFFSET -1.305520 -1.794630 0.839290
			CHANNELS 3 Zrotation Yrotation Xrotation
			JOINT RightLeg
			{
				OFFSET -2.542530 -6.985550 0.000000
				CHANNELS 3 Zrotation Yrotation Xrotation
				JOINT RightFoot
				{
					OFFSET -2.568260 -7.056230 0.000000
					CHANNELS 3 Zrotation Yrotation Xrotation
					JOINT RightToeBase
					{
						OFFSET -0.164730 -0.452590 2.363150
						CHANNELS 3 Zrotation Yrotation Xrotation
						End Site
						{
							OFFSET 0.000000 0.000000 0.000000
						}
					}
				}
			}
		}
	}
}
MOTION
Frames: 33
Frame Time: 0.008333
6.191079 16.893817 -7.244919 -174.357330 34.554865 -165.170930 -12.663000 5.891325 1.244009 -11.756468 11.656177 -7.077372 -0.222335 2.590587 40.135318 1.172078 -2.155916 24.419325 -1.711100 0.000000 -19.475100 7.879412 -0.865765 6.127433 6.393430 11.612620 -34.149115 3.211163 -0.388921 17.656411 1.496582 9.285016 2.396619 1.207200 -0.000001 -55.089700
6.287377 16.893855 -7.396577 -174.053029 34.062804 -165.162713 -12.782960 5.836223 1.013878 -11.258513 13.253858 -8.837996 -0.076374 2.684372 43.091600 1.450369 1.241656 24.254035 -0.105500 0.000000 -19.525500 7.895990 -0.979173 6.004628 7.179955 10.694216 -33.936752 3.228606 -0.484131 18.731379 1.501676 9.465352 1.996268 1.190600 -0.000000 -53.071200
6.380272 16.896858 -7.544262 -173.772315 33.564659 -165.158006 -12.871797 5.748208 0.801110 -10.875982 14.569880 -10.620307 0.048510 2.791898 45.995319 1.713477 4.580095 23.514075 1.464400 -0.000000 -19.449800 7.902101 -1.084715 5.873525 7.925700 9.803323 -33.639961 3.258811 -0.554387 19.642646 1.503148 9.650200 1.458663 1.154000 -0.000000 -51.093200
6.470402 16.903006 -7.687574 -173.532613 33.044977 -165.164020 -12.928236 5.636472 0.610661 -10.613749 15.591951 -12.422261 0.158395 2.915217 48.816665 1.950001 7.638560 22.258662 2.822601 -0.000000 -19.186800 7.904980 -1.181593 5.739601 8.595323 8.966805 -33.250945 3.295255 -0.601036 20.376635 1.498353 9.814430 0.831264 1.099000 0.000000 -49.244000
6.558196 16.912329 -7.826672 -173.336581 32.488941 -165.174093 -12.957294 5.507241 0.447119 -10.456743 16.323347 -14.254209 0.259538 3.052164 51.529891 2.150921 10.258394 20.575584 3.848700 -0.000000 -18.696400 7.905710 -1.270965 5.612907 9.172746 8.221966 -32.768040 3.333492 -0.624179 20.911815 1.483425 9.914262 0.168279 1.027000 -0.000000 -47.603800
6.643981 16.924726 -7.961772 -173.188713 31.881747 -165.187267 -12.961608 5.365199 0.314615 -10.395869 16.770861 -16.114403 0.356235 3.197364 54.101938 2.310843 12.360604 18.570500 4.494600 -0.000000 -17.984400 7.908339 -1.352711 5.496991 9.646703 7.578000 -32.194321 3.368953 -0.625386 21.245504 1.455896 9.919886 -0.488204 0.942000 -0.000000 -46.230600
6.727878 16.939920 -8.093358 -173.087360 31.212063 -165.200528 -12.945647 5.212574 0.215945 -10.412239 16.949794 -17.998218 0.449892 3.344045 56.500641 2.427325 13.928069 16.338636 4.770200 -0.000000 -17.046800 7.913707 -1.427490 5.393933 10.020637 7.037691 -31.534983 3.398797 -0.606097 21.378065 1.413552 9.802832 -1.103672 0.848500 0.000001 -45.158300
6.809619 16.957547 -8.222253 -173.020040 30.472302 -165.206770 -12.915745 5.049557 0.152419 -10.479140 16.883137 -19.897308 0.539229 3.485544 58.696118 2.500674 14.987980 13.959366 4.724700 -0.000000 -15.876100 7.919250 -1.496952 5.303635 10.311148 6.596493 -30.794401 3.422327 -0.567604 21.312526 1.354630 9.540501 -1.652683 0.750299 -0.000000 -44.394701
6.889109 16.977198 -8.348984 -172.983757 29.660483 -165.211618 -12.874777 4.876477 0.123235 -10.576147 16.597501 -21.789457 0.620942 3.615958 60.657340 2.534509 15.604872 11.501211 4.432100 -0.000000 -14.504400 7.925362 -1.561649 5.219214 10.535412 6.225307 -29.975886 3.438979 -0.512340 21.066145 1.279282 9.134142 -2.125162 0.651600 -0.000000 -43.919399
6.965860 16.998371 -8.474294 -172.965819 28.780070 -165.216034 -12.827566 4.692567 0.126053 -10.677071 16.126897 -23.654908 0.690794 3.731066 62.361738 2.534829 15.860010 9.013473 3.970600 -0.000000 -12.940000 7.928950 -1.623271 5.133881 10.718835 5.895608 -29.080691 3.450519 -0.442145 20.653197 1.188443 8.593235 -2.517049 0.554800 -0.000000 -43.692000
7.039292 17.020550 -8.598994 -172.948665 27.840966 -165.218132 -12.780593 4.496041 0.156884 -10.751730 15.512721 -25.479448 0.744614 3.828645 63.796545 2.510006 15.844553 6.534141 3.412000 0.000000 -11.217100 7.923369 -1.684490 5.042735 10.893070 5.587132 -28.106484 3.460515 -0.357917 20.080622 1.083591 7.931385 -2.826004 0.460700 -0.000000 -43.663800
7.108885 17.043264 -8.723620 -172.919946 26.857544 -165.221656 -12.737964 4.285600 0.210260 -10.779690 14.797973 -27.247675 0.779134 3.907821 64.955090 2.470388 15.654804 4.094143 2.816200 0.000000 -9.392000 7.903999 -1.747132 4.939286 11.083821 5.273675 -27.050699 3.472734 -0.260961 19.360029 0.968149 7.179142 -3.056011 0.369800 -0.000000 -43.779200
7.174667 17.066034 -8.848147 -172.888995 25.846822 -165.245857 -12.695570 4.063526 0.281302 -10.771015 14.016883 -28.935609 0.792289 3.967419 65.832159 2.427861 15.389435 1.718804 2.227400 -0.000000 -7.515600 7.876911 -1.810312 4.811399 11.292046 4.898210 -25.919635 3.488706 -0.155215 18.527416 0.850138 6.404456 -3.223639 0.284800 -0.000001 -43.974100
7.235951 17.088351 -8.973200 -172.830227 24.829765 -165.278855 -12.661768 3.826149 0.363334 -10.697815 13.217126 -30.551163 0.783778 4.009180 66.442176 2.392116 15.117657 -0.578560 1.666400 -0.000000 -5.646300 7.829919 -1.877860 4.663530 11.547956 4.478253 -24.708087 3.514293 -0.039606 17.570543 0.732701 5.621975 -3.322368 0.204700 -0.000000 -44.209800
7.293247 17.109851 -9.098439 -172.762214 23.826734 -165.337221 -12.628722 3.577399 0.452807 -10.589833 12.422494 -32.082250 0.754089 4.032311 66.789856 2.372778 14.905374 -2.781549 1.143800 -0.000000 -3.832300 7.773330 -1.947641 4.488705 11.831739 3.969418 -23.434951 3.549110 0.081091 16.531779 0.625953 4.906114 -3.368373 0.133600 0.000000 -44.445800
7.346971 17.130207 -9.223828 -172.689152 22.857469 -165.419182 -12.594311 3.318383 0.546458 -10.456366 11.657969 -33.535117 0.704630 4.037058 66.888098 2.375378 14.783876 -4.878796 0.657500 0.000000 -2.101900 7.709025 -2.019907 4.290414 12.136757 3.372060 -22.117746 3.593837 0.204412 15.430565 0.536229 4.294807 -3.364890 0.073501 -0.000000 -44.661900
7.397287 17.149109 -9.349353 -172.600854 21.942340 -165.513227 -12.561301 3.047754 0.639337 -10.290060 10.952251 -34.922867 0.637390 4.024931 66.751272 2.400766 14.752153 -6.857835 0.201201 0.000000 -0.472500 7.631731 -2.095580 4.079917 12.463975 2.731281 -20.761092 3.648971 0.330451 14.262110 0.464666 3.785154 -3.302047 0.023300 0.000001 -44.861300
7.445249 17.166376 -9.474767 -172.519677 21.092539 -165.620476 -12.519927 2.770826 0.733541 -10.126115 10.304286 -36.249185 0.554455 3.993931 66.382263 2.448219 14.802162 -8.694618 179.772900 -0.000000 -1.043900 7.555187 -2.172266 3.859145 12.779665 2.030563 -19.407067 3.710349 0.453273 13.080034 0.417274 3.421625 -3.194511 -0.013100 0.000000 -45.039901
7.491689 17.181909 -9.599972 -172.452973 20.318425 -165.732006 -12.467372 2.490064 0.829502 -9.974283 9.718575 -37.523198 0.458069 3.943558 65.783373 2.512662 14.901764 -10.360275 179.375400 0.000000 -2.431700 7.483340 -2.249162 3.637099 13.067496 1.298040 -18.080816 3.774519 0.570169 11.908698 0.393463 3.200454 -3.044778 -0.035800 -0.000000 -45.211500
7.537380 17.195694 -9.725015 -172.406262 19.624361 -165.836936 -12.400635 2.208485 0.929103 -9.842112 9.193627 -38.753041 0.350621 3.873087 64.952895 2.586951 15.011932 -11.820856 179.018200 0.000000 -3.672700 7.420740 -2.325529 3.422407 13.313689 0.561955 -16.808585 3.837626 0.678495 10.774704 0.390314 3.106463 -2.859221 -0.045700 0.000000 -45.390500
7.582650 17.207784 -9.849926 -172.372250 19.012538 -165.924084 -12.323067 1.926466 1.030826 -9.714870 8.736267 -39.940794 0.234517 3.783463 63.887503 2.661797 15.087983 -13.042378 178.716000 -0.000000 -4.737800 7.362731 -2.401248 3.226485 13.522376 -0.115673 -15.585528 3.896640 0.779636 9.667258 0.398995 3.079063 -2.631340 -0.048500 0.000000 -45.596200
7.628234 17.218212 -9.974928 -172.366174 18.474470 -165.991911 -12.228425 1.651000 1.141038 -9.614416 8.325548 -41.080685 0.112101 3.672474 62.575932 2.731283 15.108631 -13.993578 178.484300 -0.000000 -5.606800 7.320750 -2.475155 3.047813 13.673546 -0.756537 -14.448481 3.947537 0.868670 8.638940 0.418357 3.124895 -2.387103 -0.042801 0.000000 -45.829500
7.673968 17.227114 -10.100118 -172.374442 18.003224 -166.036507 -12.123721 1.382036 1.256877 -9.516843 7.966860 -42.160662 -0.014501 3.541777 61.012545 2.788271 15.049507 -14.656822 178.335300 0.000000 -6.256900 7.285988 -2.547318 2.892910 13.783056 -1.305754 -13.369072 3.988695 0.949299 7.658957 0.437742 3.168136 -2.119749 -0.036600 0.000001 -46.100800
7.720075 17.234519 -10.225776 -172.403234 17.584459 -166.062196 -12.007845 1.124975 1.382162 -9.429820 7.642815 -43.164984 -0.143313 3.390521 59.189685 2.830600 14.913261 -15.026745 178.273800 -0.000000 -6.672200 7.263328 -2.617305 2.756518 13.846481 -1.787758 -12.356989 4.018515 1.019562 6.752425 0.454988 3.202877 -1.850205 -0.030300 0.000001 -46.404801
7.766380 17.240457 -10.352117 -172.449223 17.204767 -166.074685 -11.884751 0.882335 1.516866 -9.345654 7.346027 -44.074893 -0.272722 3.219365 57.105360 2.857792 14.710453 -15.115532 178.296500 -0.000000 -6.833800 7.250081 -2.684933 2.634809 13.872449 -2.205950 -11.396180 4.036850 1.080762 5.912406 0.465973 3.202327 -1.586861 -0.027301 -0.000000 -46.737400
7.812338 17.244945 -10.479323 -172.504757 16.848954 -166.082925 -11.759967 0.655618 1.659432 -9.256281 7.072059 -44.868733 -0.401705 3.029115 54.761675 2.871304 14.458704 -14.954712 178.392000 0.000000 -6.756500 7.241868 -2.750009 2.521977 13.870404 -2.568675 -10.460996 4.044484 1.134797 5.124177 0.467868 3.146128 -1.334083 -0.030600 0.000000 -47.092900
7.857573 17.247951 -10.607559 -172.569135 16.504183 -166.097702 -11.636762 0.447108 1.809191 -9.162603 6.813760 -45.528311 -0.529907 2.820083 52.165128 2.874526 14.181516 -14.589465 178.543499 -0.000000 -6.476200 7.237588 -2.812108 2.409661 13.844255 -2.903967 -9.538052 4.042706 1.181910 4.387961 0.461405 3.041506 -1.100830 -0.040000 0.000000 -47.464900
7.901720 17.249325 -10.737053 -172.641900 16.159130 -166.125720 -11.517463 0.258707 1.966980 -9.067919 6.563366 -46.045767 -0.657088 2.592286 49.328459 2.871056 13.899473 -14.069298 178.734300 0.000000 -5.977800 7.237043 -2.871340 2.290414 13.797074 -3.244865 -8.624451 4.033714 1.221643 3.712341 0.449353 2.911330 -0.898021 -0.053001 -0.000000 -47.847500
7.944315 17.248997 -10.868013 -172.720769 15.806705 -166.172130 -11.404958 0.091170 2.132484 -8.975690 6.318530 -46.417328 -0.784161 2.345648 46.267315 2.863171 13.622150 -13.452835 178.946701 -0.000001 -5.325100 7.238761 -2.927816 2.158808 13.730576 -3.614142 -7.716830 4.019871 1.253618 3.103092 0.434977 2.779761 -0.730298 -0.066300 0.000001 -48.240100
7.985036 17.247004 -11.000329 -172.807655 15.443413 -166.247476 -11.301394 -0.055318 2.302050 -8.892088 6.083283 -46.633337 -0.913352 2.079790 42.998560 2.850312 13.344501 -12.797863 179.164999 -0.000000 -4.619400 7.242508 -2.981108 2.007987 13.640822 -4.033728 -6.805279 4.002775 1.276631 2.565157 0.422446 2.676029 -0.595635 -0.076000 0.000000 -48.655500
8.023564 17.243230 -11.134362 -172.900235 15.070999 -166.345486 -11.207476 -0.180952 2.477594 -8.822708 5.858284 -46.709709 -1.046181 1.793915 39.545459 2.829790 13.049544 -12.144768 179.378599 0.000000 -3.897500 7.248659 -3.032195 1.838536 13.526719 -4.513539 -5.910741 3.984916 1.288664 2.122308 0.416115 2.633216 -0.498576 -0.077299 0.000000 -49.105300
8.059776 17.237754 -11.270077 -173.000566 14.694804 -166.468776 -11.123895 -0.286826 2.656327 -8.773314 5.651421 -46.648976 -1.185276 1.487250 35.931456 2.795161 12.706004 -11.524503 179.578600 -0.000001 -3.248800 7.258419 -3.081342 1.649219 13.381078 -5.058989 -5.040848 3.967259 1.287014 1.793894 0.419840 2.679362 -0.434982 -0.066000 0.000000 -49.614501
8.093463 17.230651 -11.407532 -173.107923 14.323853 -166.615358 -11.051295 -0.375165 2.835809 -8.745804 5.470778 -46.458589 -1.332328 1.159605 32.186331 2.737877 12.276819 -10.947841 179.759200 0.000001 -2.729300 7.272955 -3.129077 1.441696 13.197132 -5.665090 -4.209450 3.950384 1.268761 1.603261 0.436246 2.834663 -0.399894 -0.039600 0.000000 -50.211300
